<svg xmlns="http://www.w3.org/2000/svg" xmlns:xlink="http://www.w3.org/1999/xlink" enable-background="new 0 0 500 494" preserveAspectRatio="xMidYMid meet" version="1.0" viewBox="-48.8 -9.6 596.4 534.6" zoomAndPan="magnify" style="fill: rgb(0, 0, 0);" original_string_length="9626" role="img" aria-label="Wine Toast Food Neon Illustration">
  <filter xmlns:xlink="http://www.w3.org/1999/xlink" id="__id44_sr9irsp9zn" xlink:actuate="onLoad" xlink:show="other" xlink:type="simple">
    <feGaussianBlur stdDeviation="7"/>
  </filter>
  <g id="__id45_sr9irsp9zn" style="fill: rgb(255, 189, 243);">
    <!-- sombra rosada -->
    <path d="M262.4,196.6c-2.6,0-4.7-1.9-5.1-4.4c-0.5-2.7,1.4-5.4,4.2-5.9l37.5-5.7 c0.2,0,0.5-0.1,0.8-0.1c2.5,0,4.6,1.8,5,4.3c0.5,2.8-1.4,5.4-4.2,5.9l-37.7,5.7l-0.2,0.1L262.4,196.6L262.4,196.6z M233.5,195.8 l-54-8.2c-2.9-0.5-4.8-3.2-4.3-5.9c0.4-2.5,2.6-4.3,5-4.3c0.3,0,0.6,0,0.9,0.1l53.8,8.2c1.4,0.2,2.6,1,3.4,2.1 c0.8,1.1,1.1,2.5,0.9,3.9c-0.3,2.4-2.5,4.3-5.1,4.3h-0.6L233.5,195.8L233.5,195.8z M320.8,187.6c-2.6,0-4.7-1.9-5.1-4.4 c-0.5-2.7,1.4-5.4,4.2-5.9l142.8-21.8c0.2,0,0.5-0.1,0.8-0.1c2.5,0,4.6,1.8,5,4.3c0.5,2.8-1.4,5.4-4.2,5.9l-142.6,21.8 C321.4,187.6,321.1,187.6,320.8,187.6z M157.1,183.9h-0.6l-124.4-19c-1.4-0.2-2.6-1-3.4-2.1s-1.1-2.5-0.9-3.9 c0.4-2.5,2.6-4.3,5-4.3c0.3,0,0.6,0,0.9,0.1l124.2,19c1.4,0.2,2.6,1,3.4,2.1c0.8,1.1,1.1,2.5,0.9,3.9c-0.5,2.5-2.5,4.3-4.9,4.3 C157.4,183.9,157.2,183.9,157.1,183.9z M187.5,109.9c-10.3,0-18.7-8.4-18.7-18.7s8.4-18.7,18.7-18.7s18.7,8.4,18.7,18.7 c0,2.1-0.3,4.1-1,6c-0.8,2.1-2.6,3.5-4.8,3.5c-0.6,0-1.2-0.1-1.7-0.3c-2.8-1-4.2-3.9-3.2-6.6c0.3-0.7,0.4-1.5,0.4-2.6 c0-4.6-3.8-8.4-8.4-8.4s-8.4,3.8-8.4,8.4c0,4.7,3.7,8.4,8.4,8.4c0.6,0,1.2-0.1,1.8-0.2c0.4-0.1,0.7-0.1,1.1-0.1c2.4,0,4.5,1.7,5,4 c0.7,2.8-1.1,5.5-3.9,6.2h-0.1h-0.1c-0.3,0-0.7,0.1-1,0.1C189.4,109.8,188.4,109.9,187.5,109.9z M247.2,46.9 c-10.4,0-18.8-8.4-18.8-18.8c0-3.5,0.9-6.9,2.7-9.7c0.9-1.6,2.6-2.5,4.4-2.5c0.9,0,1.8,0.3,2.6,0.7c2.4,1.5,3.2,4.6,1.8,7 c-0.8,1.3-1.2,2.8-1.2,4.4c0,4.7,3.8,8.5,8.5,8.5s8.5-3.8,8.5-8.5s-3.8-8.5-8.5-8.5c-2.9,0-5.2-2.3-5.2-5.2s2.3-5.2,5.2-5.2 c10.4,0,18.8,8.4,18.8,18.8C266,38.2,257.6,46.7,247.2,46.9L247.2,46.9L247.2,46.9z" filter="url(#__id44_sr9irsp9zn)" style="fill: inherit;"/>
    <!-- linea rosada -->
    <path d="M234.2,193.8c-0.2,0-0.3,0-0.5,0l-53.8-8.2c-1.7-0.3-2.9-1.9-2.6-3.6c0.3-1.7,1.9-2.9,3.6-2.6l53.8,8.2 c1.7,0.3,2.9,1.9,2.6,3.6C237.1,192.7,235.8,193.8,234.2,193.8z M160.3,179.3c0.3-1.7-0.9-3.3-2.6-3.6l-124.2-19 c-1.7-0.3-3.3,0.9-3.6,2.6c-0.3,1.7,0.9,3.3,2.6,3.6l124.2,19c0.2,0,0.3,0,0.5,0C158.7,182,160,180.9,160.3,179.3z M262.9,194.5 l37.5-5.7c1.7-0.3,2.9-1.9,2.6-3.6c-0.3-1.7-1.9-2.9-3.6-2.6l-37.5,5.7c-1.7,0.3-2.9,1.9-2.6,3.6c0.2,1.6,1.6,2.7,3.1,2.7 C262.6,194.5,262.7,194.5,262.9,194.5z M321.3,185.5l142.8-21.8c1.7-0.3,2.9-1.9,2.6-3.6c-0.3-1.7-1.9-2.9-3.6-2.6l-142.8,21.8 c-1.7,0.3-2.9,1.9-2.6,3.6c0.2,1.6,1.6,2.7,3.1,2.7C321,185.6,321.1,185.6,321.3,185.5z M264,27.9c0-9.3-7.5-16.8-16.8-16.8 c-1.7,0-3.2,1.4-3.2,3.2c0,1.7,1.4,3.2,3.2,3.2c5.8,0,10.5,4.7,10.5,10.5s-4.7,10.5-10.5,10.5s-10.5-4.7-10.5-10.5 c0-1.9,0.5-3.8,1.5-5.4c0.9-1.5,0.4-3.4-1.1-4.3c-1.5-0.9-3.4-0.4-4.3,1.1c-1.6,2.6-2.4,5.6-2.4,8.7c0,9.3,7.5,16.8,16.8,16.8 C256.4,44.7,264,37.1,264,27.9z M187.5,107.9c-9.2,0-16.7-7.5-16.7-16.7s7.5-16.7,16.7-16.7s16.7,7.5,16.7,16.7 c0,1.8-0.3,3.6-0.9,5.3c-0.6,1.7-2.3,2.6-4,2s-2.6-2.3-2-4c0.4-1.1,0.5-2.2,0.5-3.3c0-5.7-4.6-10.4-10.4-10.4 c-5.7,0-10.4,4.6-10.4,10.4s4.6,10.4,10.4,10.4c0.7,0,1.5-0.1,2.2-0.2c1.7-0.4,3.4,0.7,3.8,2.4c0.4,1.7-0.7,3.4-2.4,3.8 C189.9,107.7,188.7,107.9,187.5,107.9z" style="fill: inherit;"/>
  </g>
  <!-- sombra azul -->
  <g id="__id46_sr9irsp9zn">
    <path d="M325.8,487.2c-2,0-3.9-1.3-4.7-3.2v-0.1c-0.8-2.3,0-4.8,2-6.1l68.4-46.3 l-13.6-114.7c-2.4,0.2-4.5,0.3-6.4,0.3c-29.3,0-51.3-15.2-59.6-21l-0.3-0.2c-66.6-46.6-55.4-150.2-54.8-154.6 c0.3-2.4,2.1-4.2,4.4-4.5L449.6,110c0.2,0,0.4-0.1,0.7-0.1c2,0,3.9,1.2,4.7,3.1c0.4,1,42.9,97.9-7.5,162.3 c-6.5,8.3-26.1,33.2-59.4,39.9l13.6,114.6l83.7,21.4c2.5,0.7,4.1,3,3.7,5.4c-0.2,2.4-2.1,4.4-4.4,4.7l-158.2,25.9L325.8,487.2 L325.8,487.2z M348.3,473.2l110.5-18.1l-58.7-15c-0.7,0.5-1.5,0.8-2.3,0.9h-0.1h-0.5c-0.4,0-0.7-0.1-1.1-0.2L348.3,473.2z M266.6,146.5c-1.5,20.1-4.2,102.6,50.9,141c7.5,5.3,27.5,19.2,53.9,19.2c3.5,0,7-0.2,10.4-0.7c32.5-4.5,51.5-28.9,57.7-36.9 c41.3-52.8,15-129.7,7.7-148.2L266.6,146.5z M169.8,486.6L11.6,460.7c-2.4-0.5-4.1-2.5-4.3-4.8v-0.1c0-2.5,1.6-4.5,3.9-5.1 l83.7-21.4l13.6-114.6c-33.3-6.7-52.9-31.6-59.4-39.9c-48.2-61.5-11.9-152.1-7.6-162.2c0.7-1.9,2.6-3.2,4.7-3.2c0.2,0,0.5,0,0.7,0.1 l188.6,26.7c2.4,0.3,4.2,2.4,4.1,4.7c0.7,6.3,11.1,108.3-54.9,154.4c-7.4,5.2-30,21.2-59.8,21.2c-1.9,0-4.1-0.1-6.4-0.3l-13.6,114.7 l68.4,46.3c2,1.2,2.8,3.8,2,6.1c-0.7,2-2.6,3.3-4.8,3.3H169.8z M148.3,472.5l-47.7-32.3c-0.4,0.1-0.8,0.2-1.1,0.2H99h-0.1 c-0.8-0.1-1.6-0.4-2.3-0.9l-58.7,15L148.3,472.5z M49.5,120.2c-7.2,18.6-33.2,95.9,7.7,148.3l0.1,0.1c6.3,8,25.5,32.3,57.6,36.7 c3.4,0.5,6.8,0.7,10.2,0.7c26.5,0,46.5-14,54.1-19.3c56.1-39.3,52.1-125.2,50.9-141L49.5,120.2z" filter="url(#__id44_sr9irsp9zn)" style="fill: rgb(61, 216, 252);"/>
  </g>
  <!-- linea azul -->
  <g id="__id47_sr9irsp9zn">
    <path d="M484.9,453.1l-85-21.7l-14-117.8c33.7-6,53.4-31.1,60-39.5c49-62.5,9.1-156.3,7.3-160.2 c-0.6-1.3-2-2.1-3.3-1.9l-188.6,26.7c-1.4,0.2-2.5,1.3-2.7,2.8c-0.5,4.3-11.5,106.9,54,152.7c7.8,5.4,29.7,20.8,58.7,20.8 c2.7,0,5.4-0.2,8.2-0.5l14,117.9l-69.4,47c-1.2,0.8-1.7,2.4-1.2,3.8c0.5,1.2,1.7,2,2.9,2c0.2,0,0.3,0,0.5,0l158.1-25.9 c1.5-0.2,2.6-1.5,2.7-3C487.4,454.8,486.4,453.5,484.9,453.1z M316.3,289.1c-57.9-40.4-53-128.3-51.6-144.4l183.7-26 c6,14.8,35.8,96.4-7.4,151.6c-6.4,8.2-25.9,33-59,37.6C349.8,312.5,324.6,294.9,316.3,289.1z M339.7,476.6l56.1-38 c0.4,0.2,0.9,0.4,1.4,0.4c0.1,0,0.2,0,0.4,0c0.8-0.1,1.5-0.5,2-1.1l69,17.6L339.7,476.6z M235.3,138.1L46.7,111.4 c-1.4-0.2-2.8,0.6-3.3,1.9c-1.7,4-41.7,97.7,7.3,160.2c6.6,8.4,26.3,33.5,60,39.5l-14,117.8l-85,21.7c-1.5,0.4-2.4,1.7-2.4,3.2 c0.1,1.5,1.2,2.7,2.6,3L170,484.6c0.2,0,0.3,0,0.5,0c1.3,0,2.5-0.8,2.9-2c0.5-1.4,0.1-3-1.2-3.8l-69.4-47l14-117.9 c2.8,0.3,5.6,0.5,8.2,0.5c29,0,50.9-15.3,58.7-20.8c65.5-45.8,54.5-148.4,54-152.7C237.8,139.4,236.7,138.3,235.3,138.1z M156.9,475.9L28,454.8l69-17.6c0.5,0.6,1.2,1,2,1.1c0.1,0,0.3,0,0.4,0c0.5,0,1-0.2,1.4-0.4L156.9,475.9z M180.3,288.4 c-8.3,5.8-33.5,23.4-65.7,18.9c-33.1-4.6-52.6-29.5-59-37.6C12.4,214.4,42.3,132.8,48.2,118l183.7,26 C233.4,160.1,238.2,247.9,180.3,288.4z" style="fill: rgb(61, 216, 252);"/>
  </g>
  <g id="__id48_sr9irsp9zn" style="fill: rgb(255, 224, 69);">
    <!-- sombra amarilla -->
    <path d="M95.8,281.8c-0.9,0-1.8-0.2-2.5-0.7c-8.7-4.8-21-13.8-30.1-29.1 c-11.4-19.1-11.7-37.9-10.9-47.4c0.2-2.6,2.4-4.7,5.2-4.7c0.1,0,0.2,0,0.3,0c1.4,0.1,2.6,0.7,3.5,1.8c0.9,1,1.3,2.4,1.2,3.7 c-0.7,8.4-0.4,24.9,9.4,41.4c8,13.4,18.7,21.2,26.2,25.4c1.2,0.6,2.1,1.7,2.4,3.1c0.3,1.3,0.2,2.7-0.4,3.9v0.1 C99.3,280.8,97.5,281.8,95.8,281.8z M400.7,278c-1.8,0-3.6-1-4.5-2.6c-0.7-1.2-0.9-2.6-0.5-3.9c0.4-1.4,1.3-2.5,2.5-3.1 c7.6-4.2,18.3-12,26.2-25.4c9.8-16.5,10.1-33,9.4-41.3c-0.2-2.9,2-5.4,4.8-5.6c0.1,0,0.2,0,0.3,0c2.7,0,5.1,2.1,5.2,4.8 c0.8,9.4,0.5,28.2-10.9,47.3c-9.1,15.3-21.4,24.3-30.2,29.1C402.2,277.9,401.3,278,400.7,278z M241.8,114.4c-2.8,0-5-2.1-5.2-4.9 c-0.1-2.7-1.7-26.9-21.5-41.2c-10.2-7.4-21.1-9.2-28.4-9.4c-2.9-0.2-5-2.5-5-5.3v-0.1c0.2-2.8,2.5-5,5.3-5 c8.8,0.3,21.8,2.5,34.1,11.4c22.1,16,25.3,41.5,25.7,49c0.2,2.7-2,5.2-4.8,5.5H241.8L241.8,114.4z M264.4,108.1 c-2.8-0.2-4.9-2.7-4.8-5.5c0.6-7.7,4.5-34.1,29.1-52.3c15.6-11.5,32.2-13.9,43.3-13.9c6.3,0,11.2,0.8,13.5,1.2 c1.3,0.2,2.5,1,3.3,2.2c0.8,1.1,1,2.5,0.8,3.8c-0.4,2.4-2.6,4.2-5.1,4.2c-0.3,0-0.6,0-0.9-0.1c-2-0.4-6.2-1.1-11.6-1.1 c-9.5,0-23.7,2.1-37.1,11.9c-21.6,15.8-24.6,40-25,44.8c-0.3,2.7-2.5,4.7-5.1,4.7L264.4,108.1z M300,96.3c-0.5,0-1.2,0-1.9-0.4 c-1.2-0.5-2.2-1.5-2.8-2.7c-0.5-1.3-0.5-2.8,0-4c1.7-4,6.9-14.1,18.8-18.8c3.7-1.4,7.7-2.2,11.8-2.2c2.1,0,4.2,0.2,6.3,0.6 c2.8,0.5,4.6,3.2,4.1,6c-0.4,2.4-2.6,4.2-5.1,4.2c-0.3,0-0.6,0-0.9-0.1c-1.5-0.3-2.9-0.4-4.4-0.4c-2.8,0-5.5,0.5-8,1.5 c-8.5,3.3-12.2,10.9-13.1,13.1c-0.8,1.9-2.6,3.1-4.5,3.1C300.3,96.3,300.1,96.3,300,96.3z M196.1,38.8c-0.1,0-0.3,0-0.4,0 c-1.3,0-2.6-0.6-3.5-1.5c-4.4-4.1-9.3-7-14.7-8.6c-3.5-1.1-7.2-1.6-10.9-1.6c-1.5,0-3.1,0.1-4.6,0.3c-0.2,0-0.4,0-0.6,0 c-2.6,0-4.8-1.9-5.1-4.4c-0.2-1.3,0.1-2.6,0.9-3.7c0.8-1.1,2.1-1.9,3.5-2c2-0.3,4-0.4,6-0.4c4.7,0,9.3,0.7,13.7,2.1 c7.1,2.2,13.6,6,18.8,11.1c1,0.9,1.6,2.2,1.6,3.6c0,1.4-0.5,2.7-1.4,3.7C198.6,38.2,197.4,38.8,196.1,38.8z" filter="url(#__id44_sr9irsp9zn)" style="fill: inherit;"/>
    <!-- linea amarilla -->
    <path d="M241.8,112.4c-1.7,0-3.1-1.3-3.2-3c-0.2-4.6-2.4-28.3-22.3-42.7c-10.6-7.7-21.9-9.6-29.5-9.8 c-1.7-0.1-3.1-1.5-3.1-3.3c0.1-1.7,1.5-3.1,3.3-3.1c8.4,0.3,21,2.4,32.9,11c22.2,16,24.6,42.4,24.9,47.5 C244.9,110.7,243.5,112.2,241.8,112.4C241.9,112.4,241.9,112.4,241.8,112.4z M267.9,103.2c0.4-4.8,3.5-29.9,25.8-46.2 c20.9-15.4,43.7-12.5,50.2-11.2c1.7,0.3,3.4-0.8,3.7-2.5c0.3-1.7-0.8-3.4-2.5-3.7c-7.1-1.4-32.2-4.6-55.2,12.3 c-23.8,17.6-27.7,43.3-28.3,50.8c-0.1,1.7,1.2,3.3,2.9,3.4c0.1,0,0.2,0,0.3,0C266.3,106.1,267.7,104.9,267.9,103.2z M303,92.4 c1-2.4,5-10.6,14.2-14.2c5.3-2.1,10.3-1.8,13.5-1.2c1.7,0.3,3.4-0.8,3.7-2.5c0.3-1.7-0.8-3.4-2.5-3.7c-4-0.7-10.3-1.1-17,1.5 c-11.2,4.4-16.1,13.8-17.7,17.7c-0.7,1.6,0.1,3.5,1.7,4.1c0.4,0.2,0.8,0.2,1.2,0.2C301.3,94.4,302.5,93.6,303,92.4z M198,35.9 c1.2-1.3,1.2-3.3-0.1-4.5c-5.1-4.9-11.3-8.5-18-10.6c-6.1-1.9-12.6-2.4-18.9-1.6c-1.7,0.2-3,1.8-2.7,3.5c0.2,1.7,1.8,2.9,3.5,2.7 c5.4-0.7,11.1-0.2,16.3,1.4c7.3,2.2,12.4,6.2,15.5,9.1c0.6,0.6,1.4,0.9,2.2,0.9C196.6,36.9,197.4,36.6,198,35.9z M98.5,278.2 c0.8-1.5,0.3-3.5-1.2-4.3c-7.8-4.3-18.8-12.4-27-26.1c-10.1-17-10.4-33.9-9.7-42.5c0.1-1.7-1.2-3.3-2.9-3.4 c-1.8-0.1-3.3,1.2-3.4,2.9c-0.8,9.3-0.4,27.7,10.6,46.2c8.9,15,20.9,23.7,29.4,28.4c0.5,0.3,1,0.4,1.5,0.4 C96.8,279.8,97.9,279.2,98.5,278.2z M402.1,275.6c8.5-4.7,20.5-13.4,29.4-28.4c11-18.5,11.4-36.9,10.6-46.2c-0.1-1.7-1.7-3-3.4-2.9 c-1.7,0.1-3,1.7-2.9,3.4c0.7,8.6,0.4,25.5-9.7,42.5c-8.2,13.8-19.2,21.8-27,26.1c-1.5,0.8-2.1,2.8-1.2,4.3c0.6,1,1.7,1.6,2.8,1.6 C401.1,276,401.6,275.9,402.1,275.6z" style="fill: inherit;"/>
  </g>
</svg>
